<svg xmlns="http://www.w3.org/2000/svg" xmlns:xlink="http://www.w3.org/1999/xlink" width="198" zoomAndPan="magnify" viewBox="0 0 148.5 36.000001" height="48" preserveAspectRatio="xMidYMid meet" version="1.2"><g id="79f3fe6502"><path style=" stroke:none;fill-rule:nonzero;fill:#000000;fill-opacity:1;" d="M 39.878906 12.300781 L 54.441406 12.300781 L 54.441406 14.96875 L 48.714844 14.96875 L 48.714844 29.972656 L 45.566406 29.972656 L 45.566406 14.96875 L 39.863281 14.96875 L 39.863281 12.296875 L 39.875 12.296875 Z M 53.820312 17.175781 L 56.511719 17.175781 L 56.511719 19.644531 L 56.5625 19.644531 C 56.652344 19.296875 56.816406 18.957031 57.058594 18.632812 C 57.582031 17.925781 58.257812 17.40625 59.074219 17.074219 C 59.488281 16.914062 59.914062 16.828125 60.359375 16.824219 C 60.6875 16.824219 60.929688 16.839844 61.058594 16.851562 C 61.183594 16.863281 61.308594 16.886719 61.449219 16.902344 L 61.449219 19.621094 C 61.242188 19.582031 61.035156 19.554688 60.828125 19.53125 C 60.621094 19.507812 60.414062 19.496094 60.203125 19.496094 C 59.722656 19.496094 59.265625 19.59375 58.835938 19.78125 C 58.402344 19.96875 58.035156 20.253906 57.71875 20.617188 C 57.375 21.027344 57.121094 21.484375 56.953125 21.988281 C 56.765625 22.539062 56.675781 23.160156 56.675781 23.875 L 56.675781 29.960938 L 53.808594 29.960938 L 53.808594 17.175781 Z M 74.640625 29.972656 L 71.824219 29.972656 L 71.824219 28.1875 L 71.773438 28.1875 C 71.417969 28.839844 70.894531 29.351562 70.199219 29.738281 C 69.5 30.121094 68.789062 30.320312 68.066406 30.320312 C 66.351562 30.320312 65.105469 29.910156 64.34375 29.074219 C 63.582031 28.238281 63.203125 26.980469 63.203125 25.296875 L 63.203125 17.175781 L 66.070312 17.175781 L 66.070312 25.019531 C 66.070312 26.144531 66.285156 26.941406 66.730469 27.402344 C 67.164062 27.867188 67.785156 28.101562 68.570312 28.101562 C 69.179688 28.101562 69.675781 28.015625 70.082031 27.828125 C 70.488281 27.640625 70.820312 27.402344 71.0625 27.089844 C 71.316406 26.792969 71.492188 26.417969 71.609375 25.996094 C 71.71875 25.570312 71.773438 25.109375 71.773438 24.609375 L 71.773438 17.1875 L 74.640625 17.1875 Z M 79.53125 25.871094 C 79.617188 26.691406 79.9375 27.265625 80.480469 27.601562 C 81.039062 27.929688 81.699219 28.101562 82.476562 28.101562 C 82.742188 28.101562 83.046875 28.078125 83.390625 28.039062 C 83.730469 28.003906 84.0625 27.914062 84.355469 27.804688 C 84.660156 27.691406 84.898438 27.515625 85.101562 27.292969 C 85.292969 27.066406 85.382812 26.78125 85.371094 26.417969 C 85.367188 26.0625 85.230469 25.769531 84.964844 25.53125 C 84.710938 25.296875 84.394531 25.121094 84 24.972656 C 83.558594 24.820312 83.109375 24.699219 82.652344 24.609375 C 82.144531 24.511719 81.636719 24.398438 81.117188 24.285156 C 80.59375 24.171875 80.078125 24.03125 79.566406 23.859375 C 79.085938 23.707031 78.644531 23.484375 78.234375 23.1875 C 77.832031 22.90625 77.519531 22.550781 77.292969 22.117188 C 77.054688 21.679688 76.9375 21.140625 76.9375 20.492188 C 76.9375 19.796875 77.117188 19.222656 77.460938 18.746094 C 77.8125 18.269531 78.246094 17.890625 78.769531 17.613281 C 79.324219 17.320312 79.914062 17.113281 80.53125 17 C 81.179688 16.890625 81.800781 16.828125 82.386719 16.828125 C 83.058594 16.828125 83.707031 16.902344 84.316406 17.039062 C 84.914062 17.167969 85.46875 17.394531 85.980469 17.726562 C 86.476562 18.039062 86.878906 18.449219 87.210938 18.949219 C 87.542969 19.445312 87.746094 20.058594 87.832031 20.769531 L 84.835938 20.769531 C 84.695312 20.09375 84.390625 19.632812 83.898438 19.410156 C 83.402344 19.171875 82.832031 19.058594 82.195312 19.058594 C 81.992188 19.058594 81.75 19.070312 81.472656 19.109375 C 81.203125 19.144531 80.941406 19.207031 80.683594 19.296875 C 80.449219 19.382812 80.242188 19.515625 80.0625 19.695312 C 79.882812 19.890625 79.800781 20.117188 79.808594 20.382812 C 79.808594 20.730469 79.9375 21.003906 80.175781 21.21875 C 80.417969 21.429688 80.734375 21.605469 81.128906 21.753906 C 81.523438 21.890625 81.96875 22.015625 82.476562 22.117188 C 82.984375 22.214844 83.503906 22.328125 84.039062 22.441406 C 84.558594 22.550781 85.066406 22.703125 85.574219 22.863281 C 86.082031 23.027344 86.523438 23.25 86.917969 23.539062 C 87.3125 23.824219 87.628906 24.171875 87.871094 24.597656 C 88.113281 25.019531 88.238281 25.558594 88.238281 26.179688 C 88.238281 26.941406 88.0625 27.578125 87.707031 28.113281 C 87.351562 28.640625 86.894531 29.074219 86.335938 29.398438 C 85.746094 29.738281 85.121094 29.980469 84.457031 30.121094 C 83.78125 30.269531 83.101562 30.347656 82.410156 30.347656 C 81.636719 30.355469 80.875 30.265625 80.125 30.074219 C 79.429688 29.886719 78.820312 29.609375 78.3125 29.25 C 77.804688 28.882812 77.402344 28.417969 77.105469 27.867188 C 76.8125 27.316406 76.660156 26.65625 76.636719 25.894531 L 79.53125 25.894531 Z M 89 17.175781 L 91.171875 17.175781 L 91.171875 13.335938 L 94.042969 13.335938 L 94.042969 17.175781 L 96.632812 17.175781 L 96.632812 19.285156 L 94.042969 19.285156 L 94.042969 26.121094 C 94.042969 26.417969 94.054688 26.667969 94.082031 26.890625 C 94.105469 27.105469 94.167969 27.292969 94.257812 27.441406 C 94.359375 27.601562 94.5 27.714844 94.675781 27.777344 C 94.867188 27.851562 95.109375 27.890625 95.441406 27.890625 C 95.640625 27.890625 95.847656 27.890625 96.050781 27.878906 C 96.253906 27.867188 96.453125 27.839844 96.660156 27.789062 L 96.660156 29.972656 C 96.339844 30.011719 96.023438 30.035156 95.730469 30.074219 C 95.421875 30.109375 95.113281 30.125 94.804688 30.121094 C 94.042969 30.121094 93.433594 30.046875 92.976562 29.910156 C 92.519531 29.773438 92.152344 29.5625 91.898438 29.289062 C 91.628906 29.011719 91.464844 28.675781 91.363281 28.265625 C 91.265625 27.800781 91.210938 27.332031 91.199219 26.855469 L 91.199219 19.308594 L 89.027344 19.308594 L 89.027344 17.175781 Z M 98.664062 17.175781 L 101.382812 17.175781 L 101.382812 18.910156 L 101.433594 18.910156 C 101.835938 18.160156 102.394531 17.636719 103.121094 17.3125 C 103.867188 16.980469 104.652344 16.820312 105.46875 16.828125 C 106.496094 16.828125 107.386719 17 108.148438 17.363281 C 108.910156 17.710938 109.542969 18.199219 110.050781 18.820312 C 110.558594 19.445312 110.929688 20.167969 111.183594 20.992188 C 111.441406 21.855469 111.570312 22.738281 111.5625 23.636719 C 111.5625 24.496094 111.449219 25.332031 111.21875 26.132812 C 111.007812 26.910156 110.664062 27.625 110.191406 28.277344 C 109.722656 28.910156 109.140625 29.402344 108.441406 29.761719 C 107.730469 30.136719 106.902344 30.320312 105.9375 30.320312 C 105.515625 30.320312 105.097656 30.285156 104.679688 30.210938 C 104.265625 30.132812 103.863281 30.015625 103.476562 29.847656 C 103.089844 29.6875 102.734375 29.476562 102.410156 29.210938 C 102.085938 28.957031 101.8125 28.65625 101.582031 28.3125 L 101.53125 28.3125 L 101.53125 34.699219 L 98.664062 34.699219 Z M 108.695312 23.585938 C 108.695312 23.015625 108.617188 22.453125 108.464844 21.902344 C 108.324219 21.378906 108.09375 20.898438 107.78125 20.457031 C 107.476562 20.035156 107.101562 19.699219 106.648438 19.445312 C 106.164062 19.183594 105.640625 19.054688 105.089844 19.058594 C 103.882812 19.058594 102.96875 19.46875 102.359375 20.292969 C 101.75 21.117188 101.445312 22.214844 101.445312 23.585938 C 101.445312 24.234375 101.519531 24.835938 101.683594 25.382812 C 101.847656 25.929688 102.078125 26.40625 102.410156 26.804688 C 102.726562 27.203125 103.105469 27.515625 103.550781 27.738281 C 103.996094 27.976562 104.515625 28.089844 105.101562 28.089844 C 105.761719 28.089844 106.308594 27.953125 106.765625 27.691406 C 107.210938 27.433594 107.585938 27.09375 107.882812 26.667969 C 108.171875 26.242188 108.390625 25.769531 108.515625 25.234375 C 108.632812 24.691406 108.691406 24.140625 108.695312 23.585938 Z M 113.757812 12.300781 L 116.628906 12.300781 L 116.628906 14.96875 L 113.757812 14.96875 Z M 113.757812 17.175781 L 116.628906 17.175781 L 116.628906 29.972656 L 113.757812 29.972656 Z M 119.195312 12.300781 L 122.0625 12.300781 L 122.0625 29.972656 L 119.195312 29.972656 Z M 130.863281 30.320312 C 129.820312 30.320312 128.894531 30.148438 128.082031 29.8125 C 127.296875 29.488281 126.605469 29.023438 126.011719 28.414062 C 125.4375 27.792969 125.007812 27.082031 124.730469 26.28125 C 124.425781 25.398438 124.277344 24.492188 124.285156 23.5625 C 124.285156 22.589844 124.4375 21.691406 124.730469 20.867188 C 125.007812 20.066406 125.4375 19.355469 126.011719 18.734375 C 126.570312 18.136719 127.269531 17.675781 128.082031 17.339844 C 128.894531 17 129.820312 16.828125 130.863281 16.828125 C 131.902344 16.828125 132.832031 17 133.644531 17.339844 C 134.457031 17.675781 135.140625 18.148438 135.710938 18.734375 C 136.289062 19.355469 136.714844 20.066406 136.996094 20.867188 C 137.285156 21.691406 137.4375 22.589844 137.4375 23.5625 C 137.4375 24.546875 137.285156 25.457031 136.996094 26.28125 C 136.71875 27.082031 136.289062 27.792969 135.710938 28.414062 C 135.152344 29.011719 134.457031 29.472656 133.644531 29.8125 C 132.832031 30.148438 131.902344 30.320312 130.863281 30.320312 Z M 130.863281 28.089844 C 131.496094 28.089844 132.054688 27.953125 132.523438 27.691406 C 132.988281 27.433594 133.375 27.085938 133.679688 26.65625 C 133.984375 26.230469 134.199219 25.746094 134.355469 25.207031 C 134.492188 24.671875 134.570312 24.125 134.570312 23.5625 C 134.570312 23.011719 134.492188 22.476562 134.355469 21.929688 C 134.222656 21.402344 133.996094 20.921875 133.679688 20.480469 C 133.375 20.054688 132.988281 19.710938 132.523438 19.460938 C 132.054688 19.195312 131.496094 19.058594 130.863281 19.058594 C 130.226562 19.058594 129.667969 19.195312 129.199219 19.460938 C 128.738281 19.714844 128.355469 20.058594 128.042969 20.480469 C 127.730469 20.921875 127.507812 21.40625 127.371094 21.929688 C 127.230469 22.464844 127.15625 23.007812 127.15625 23.5625 C 127.15625 24.125 127.230469 24.671875 127.371094 25.207031 C 127.511719 25.746094 127.738281 26.230469 128.042969 26.65625 C 128.347656 27.078125 128.730469 27.429688 129.199219 27.691406 C 129.667969 27.964844 130.226562 28.089844 130.863281 28.089844 Z M 138.277344 17.175781 L 140.449219 17.175781 L 140.449219 13.335938 L 143.320312 13.335938 L 143.320312 17.175781 L 145.90625 17.175781 L 145.90625 19.285156 L 143.320312 19.285156 L 143.320312 26.121094 C 143.320312 26.417969 143.332031 26.667969 143.355469 26.890625 C 143.382812 27.105469 143.445312 27.292969 143.535156 27.441406 C 143.632812 27.601562 143.773438 27.714844 143.953125 27.777344 C 144.144531 27.851562 144.382812 27.890625 144.714844 27.890625 C 144.917969 27.890625 145.121094 27.890625 145.324219 27.878906 C 145.527344 27.867188 145.730469 27.839844 145.933594 27.789062 L 145.933594 29.972656 C 145.617188 30.011719 145.296875 30.035156 145.007812 30.074219 C 144.699219 30.109375 144.390625 30.125 144.078125 30.121094 C 143.320312 30.121094 142.707031 30.046875 142.25 29.910156 C 141.792969 29.773438 141.425781 29.5625 141.171875 29.289062 C 140.90625 29.011719 140.742188 28.675781 140.636719 28.265625 C 140.539062 27.800781 140.484375 27.332031 140.472656 26.855469 L 140.472656 19.308594 L 138.304688 19.308594 L 138.304688 17.175781 Z M 138.277344 17.175781 "/><path style=" stroke:none;fill-rule:nonzero;fill:#04da8d;fill-opacity:1;" d="M 36.527344 12.296875 L 23.371094 12.296875 L 19.308594 0 L 15.230469 12.300781 L 2.082031 12.285156 L 12.734375 19.894531 L 8.65625 32.179688 L 19.308594 24.582031 L 29.949219 32.179688 L 25.886719 19.894531 Z M 36.527344 12.296875 "/><path style=" stroke:none;fill-rule:nonzero;fill:#126849;fill-opacity:1;" d="M 26.800781 22.675781 L 25.886719 19.894531 L 19.308594 24.585938 Z M 26.800781 22.675781 "/></g></svg>