<svg xmlns="http://www.w3.org/2000/svg" xmlns:xlink="http://www.w3.org/1999/xlink" width="603" zoomAndPan="magnify" viewBox="0 0 452.25 136.499996" height="182" preserveAspectRatio="xMidYMid meet" version="1.2"><defs><clipPath id="48b3eda1a8"><path d="M 0.453125 0 L 68 0 L 68 80 L 0.453125 80 Z M 0.453125 0 "/></clipPath></defs><g id="2c4d179553"><path style=" stroke:none;fill-rule:nonzero;fill:#ff9900;fill-opacity:1;" d="M 279.933594 106.25 C 253.777344 125.527344 215.871094 135.8125 183.230469 135.8125 C 137.46875 135.8125 96.269531 118.886719 65.097656 90.734375 C 62.648438 88.519531 64.84375 85.503906 67.78125 87.226562 C 101.421875 106.796875 143.011719 118.570312 185.976562 118.570312 C 214.949219 118.570312 246.824219 112.578125 276.132812 100.136719 C 280.558594 98.253906 284.261719 103.035156 279.933594 106.25 "/><path style=" stroke:none;fill-rule:nonzero;fill:#ff9900;fill-opacity:1;" d="M 290.804688 93.808594 C 287.476562 89.539062 268.707031 91.789062 260.28125 92.789062 C 257.714844 93.101562 257.324219 90.871094 259.636719 89.261719 C 274.585938 78.742188 299.113281 81.78125 301.972656 85.304688 C 304.832031 88.851562 301.226562 113.4375 287.179688 125.171875 C 285.027344 126.976562 282.96875 126.015625 283.929688 123.625 C 287.082031 115.75 294.15625 98.097656 290.804688 93.808594 "/><path style=" stroke:none;fill-rule:nonzero;fill:#ffffff;fill-opacity:1;" d="M 260.871094 14.996094 L 260.871094 4.769531 C 260.871094 3.21875 262.046875 2.183594 263.457031 2.183594 L 309.242188 2.183594 C 310.710938 2.183594 311.886719 3.238281 311.886719 4.769531 L 311.886719 13.523438 C 311.867188 14.996094 310.632812 16.914062 308.4375 19.949219 L 284.710938 53.824219 C 293.527344 53.609375 302.835938 54.921875 310.828125 59.425781 C 312.628906 60.445312 313.121094 61.933594 313.257812 63.402344 L 313.257812 74.316406 C 313.257812 75.804688 311.609375 77.546875 309.886719 76.648438 C 295.800781 69.261719 277.09375 68.457031 261.515625 76.726562 C 259.929688 77.585938 258.265625 75.863281 258.265625 74.375 L 258.265625 64.011719 C 258.265625 62.34375 258.285156 59.503906 259.949219 56.976562 L 287.4375 17.5625 L 263.515625 17.5625 C 262.046875 17.5625 260.871094 16.523438 260.871094 14.996094 "/><path style=" stroke:none;fill-rule:nonzero;fill:#ffffff;fill-opacity:1;" d="M 93.859375 78.800781 L 79.929688 78.800781 C 78.597656 78.703125 77.539062 77.703125 77.441406 76.429688 L 77.441406 4.945312 C 77.441406 3.515625 78.636719 2.378906 80.125 2.378906 L 93.113281 2.378906 C 94.464844 2.4375 95.542969 3.476562 95.640625 4.769531 L 95.640625 14.113281 L 95.894531 14.113281 C 99.285156 5.082031 105.652344 0.871094 114.234375 0.871094 C 122.949219 0.871094 128.398438 5.082031 132.316406 14.113281 C 135.683594 5.082031 143.34375 0.871094 151.554688 0.871094 C 157.390625 0.871094 163.777344 3.277344 167.675781 8.6875 C 172.085938 14.699219 171.183594 23.4375 171.183594 31.097656 L 171.164062 76.214844 C 171.164062 77.644531 169.96875 78.800781 168.480469 78.800781 L 154.570312 78.800781 C 153.179688 78.703125 152.0625 77.585938 152.0625 76.214844 L 152.0625 38.328125 C 152.0625 35.308594 152.335938 27.789062 151.671875 24.925781 C 150.632812 20.128906 147.519531 18.777344 143.480469 18.777344 C 140.113281 18.777344 136.585938 21.027344 135.15625 24.632812 C 133.726562 28.238281 133.863281 34.273438 133.863281 38.328125 L 133.863281 76.214844 C 133.863281 77.644531 132.667969 78.800781 131.179688 78.800781 L 117.269531 78.800781 C 115.859375 78.703125 114.761719 77.585938 114.761719 76.214844 L 114.742188 38.328125 C 114.742188 30.355469 116.054688 18.617188 106.160156 18.617188 C 96.152344 18.617188 96.542969 30.058594 96.542969 38.328125 L 96.542969 76.214844 C 96.542969 77.644531 95.347656 78.800781 93.859375 78.800781 "/><path style=" stroke:none;fill-rule:nonzero;fill:#ffffff;fill-opacity:1;" d="M 351.300781 0.871094 C 371.96875 0.871094 383.15625 18.617188 383.15625 41.1875 C 383.15625 62.992188 370.796875 80.289062 351.300781 80.289062 C 331.007812 80.289062 319.957031 62.542969 319.957031 40.421875 C 319.957031 18.167969 331.144531 0.871094 351.300781 0.871094 M 351.417969 15.464844 C 341.152344 15.464844 340.507812 29.453125 340.507812 38.171875 C 340.507812 46.90625 340.371094 65.558594 351.300781 65.558594 C 362.097656 65.558594 362.605469 50.511719 362.605469 41.34375 C 362.605469 35.308594 362.351562 28.101562 360.53125 22.378906 C 358.960938 17.402344 355.847656 15.464844 351.417969 15.464844 "/><path style=" stroke:none;fill-rule:nonzero;fill:#ffffff;fill-opacity:1;" d="M 409.957031 78.800781 L 396.085938 78.800781 C 394.695312 78.703125 393.578125 77.585938 393.578125 76.214844 L 393.558594 4.710938 C 393.675781 3.398438 394.832031 2.378906 396.242188 2.378906 L 409.152344 2.378906 C 410.367188 2.4375 411.367188 3.257812 411.640625 4.375 L 411.640625 15.308594 L 411.898438 15.308594 C 415.796875 5.53125 421.261719 0.871094 430.878906 0.871094 C 437.128906 0.871094 443.222656 3.121094 447.140625 9.292969 C 450.785156 15.015625 450.785156 24.632812 450.785156 31.550781 L 450.785156 76.550781 C 450.628906 77.804688 449.472656 78.800781 448.101562 78.800781 L 434.132812 78.800781 C 432.859375 78.703125 431.800781 77.765625 431.664062 76.550781 L 431.664062 37.71875 C 431.664062 29.902344 432.566406 18.460938 422.945312 18.460938 C 419.558594 18.460938 416.441406 20.734375 414.894531 24.183594 C 412.933594 28.550781 412.679688 32.902344 412.679688 37.71875 L 412.679688 76.214844 C 412.660156 77.644531 411.445312 78.800781 409.957031 78.800781 "/><path style=" stroke:none;fill-rule:nonzero;fill:#ffffff;fill-opacity:1;" d="M 224.371094 44.65625 L 224.371094 41.636719 C 214.304688 41.636719 203.664062 43.792969 203.664062 55.664062 C 203.664062 61.679688 206.78125 65.753906 212.128906 65.753906 C 216.046875 65.753906 219.554688 63.34375 221.765625 59.425781 C 224.511719 54.605469 224.371094 50.082031 224.371094 44.65625 M 238.417969 78.605469 C 237.5 79.429688 236.167969 79.488281 235.128906 78.9375 C 230.503906 75.097656 229.683594 73.316406 227.136719 69.652344 C 219.496094 77.449219 214.085938 79.78125 204.175781 79.78125 C 192.460938 79.78125 183.332031 72.550781 183.332031 58.074219 C 183.332031 46.769531 189.460938 39.070312 198.179688 35.308594 C 205.742188 31.980469 216.300781 31.390625 224.371094 30.472656 L 224.371094 28.667969 C 224.371094 25.359375 224.628906 21.441406 222.6875 18.578125 C 220.984375 16.011719 217.730469 14.957031 214.871094 14.957031 C 209.5625 14.957031 204.820312 17.679688 203.664062 23.320312 C 203.429688 24.574219 202.507812 25.808594 201.253906 25.867188 L 187.738281 24.417969 C 186.601562 24.164062 185.347656 23.242188 185.660156 21.5 C 188.777344 5.121094 203.566406 0.183594 216.8125 0.183594 C 223.589844 0.183594 232.445312 1.984375 237.792969 7.117188 C 244.570312 13.445312 243.925781 21.890625 243.925781 31.078125 L 243.925781 52.785156 C 243.925781 59.308594 246.628906 62.167969 249.175781 65.695312 C 250.078125 66.949219 250.273438 68.457031 249.136719 69.398438 C 246.296875 71.769531 241.242188 76.175781 238.457031 78.644531 L 238.417969 78.605469 "/><g clip-rule="nonzero" clip-path="url(#48b3eda1a8)"><path style=" stroke:none;fill-rule:nonzero;fill:#ffffff;fill-opacity:1;" d="M 41.765625 44.65625 L 41.765625 41.636719 C 31.695312 41.636719 21.058594 43.792969 21.058594 55.664062 C 21.058594 61.679688 24.175781 65.753906 29.523438 65.753906 C 33.441406 65.753906 36.945312 63.34375 39.160156 59.425781 C 41.902344 54.605469 41.765625 50.082031 41.765625 44.65625 M 55.8125 78.605469 C 54.890625 79.429688 53.558594 79.488281 52.523438 78.9375 C 47.898438 75.097656 47.074219 73.316406 44.527344 69.652344 C 36.886719 77.449219 31.480469 79.78125 21.566406 79.78125 C 9.851562 79.78125 0.722656 72.550781 0.722656 58.074219 C 0.722656 46.769531 6.855469 39.070312 15.574219 35.308594 C 23.136719 31.980469 33.695312 31.390625 41.765625 30.472656 L 41.765625 28.667969 C 41.765625 25.359375 42.019531 21.441406 40.082031 18.578125 C 38.378906 16.011719 35.125 14.957031 32.265625 14.957031 C 26.957031 14.957031 22.214844 17.679688 21.058594 23.320312 C 20.824219 24.574219 19.902344 25.808594 18.648438 25.867188 L 5.132812 24.417969 C 3.996094 24.164062 2.742188 23.242188 3.054688 21.5 C 6.167969 5.121094 20.960938 0.183594 34.203125 0.183594 C 40.984375 0.183594 49.839844 1.984375 55.1875 7.117188 C 61.964844 13.445312 61.316406 21.890625 61.316406 31.078125 L 61.316406 52.785156 C 61.316406 59.308594 64.023438 62.167969 66.570312 65.695312 C 67.46875 66.949219 67.664062 68.457031 66.53125 69.398438 C 63.6875 71.769531 58.632812 76.175781 55.851562 78.644531 L 55.8125 78.605469 "/></g></g></svg>